# xmcd CD database file
#
# Track frame offsets:
#	182
#	30997
#	85512
#	120390
#	160110
#	206755
#
# Disc length: 3089 seconds
#
# Revision: 0
# Processed by: cddbd v1.5.2PL0 Copyright (c) Steve Scherf et al.
# Submitted via: CDex 1.70beta2
#
DISCID=3a0c0f06
DTITLE=Vinny Golia - Regards From Norma Desmond
DYEAR=1986
DGENRE=Jazz
TTITLE0=Teribee, Three Palm Slammy
TTITLE1=The Cry (for Booker Little)
TTITLE2=a) 3 Things For The Practitioner
TTITLE3=b) Sent A Message
TTITLE4=a) Professor Mackel's Famous Ride
TTITLE5=b) It's Played Slowly
EXTD=YEAR: 1986
EXTT0=
EXTT1=
EXTT2=
EXTT3=
EXTT4=
EXTT5=
PLAYORDER=
